{
  "accessors": [
    {
      "bufferView": 1,
      "componentType": 5126,
      "count": 65532,
      "max": [
        7.9545698165893555,
        13.710470199584961,
        15.951435089111328
      ],
      "min": [
        -4.375912189483643,
        -15.268117904663086,
        -1.568131685256958
      ],
      "type": "VEC3"
    },
    {
      "bufferView": 1,
      "byteOffset": 786384,
      "componentType": 5126,
      "count": 65532,
      "max": [
        0.9999863505363464,
        0.9999489188194275,
        0.9999995827674866
      ],
      "min": [
        -0.999995231628418,
        -0.9999927282333374,
        -0.9999962449073792
      ],
      "type": "VEC3"
    },
    {
      "bufferView": 0,
      "componentType": 5125,
      "count": 348210,
      "type": "SCALAR"
    },
    {
      "bufferView": 1,
      "byteOffset": 1572768,
      "componentType": 5126,
      "count": 35473,
      "max": [
        7.9545698165893555,
        13.707951545715332,
        15.951138496398926
      ],
      "min": [
        -4.3896484375,
        -15.283868789672852,
        -1.5519388914108276
      ],
      "type": "VEC3"
    },
    {
      "bufferView": 1,
      "byteOffset": 1998444,
      "componentType": 5126,
      "count": 35473,
      "max": [
        0.9999863505363464,
        0.9993044137954712,
        0.9999513030052185
      ],
      "min": [
        -0.9999819397926331,
        -0.9999927282333374,
        -0.9999962449073792
      ],
      "type": "VEC3"
    },
    {
      "bufferView": 0,
      "byteOffset": 1392840,
      "componentType": 5125,
      "count": 138900,
      "type": "SCALAR"
    }
  ],
  "asset": {
    "extras": {
      "author": "patrickart90 (https://sketchfab.com/patrickart90)",
      "license": "CC-BY-4.0 (http://creativecommons.org/licenses/by/4.0/)",
      "source": "https://sketchfab.com/3d-models/free-foot-highpoly-3d-fc985f63e2d64d7f8d16f6f8f5834dc0",
      "title": "Free Foot highpoly 3D"
    },
    "generator": "Sketchfab-12.68.0",
    "version": "2.0"
  },
  "bufferViews": [
    {
      "buffer": 0,
      "byteLength": 1948440,
      "name": "floatBufferViews",
      "target": 34963
    },
    {
      "buffer": 0,
      "byteLength": 2424120,
      "byteOffset": 1948440,
      "byteStride": 12,
      "name": "floatBufferViews",
      "target": 34962
    }
  ],
  "buffers": [
    {
      "byteLength": 4372560,
      "uri": "scene.bin"
    }
  ],
  "materials": [
    {
      "doubleSided": true,
      "name": "material_0",
      "pbrMetallicRoughness": {
        "metallicFactor": 0.0,
        "roughnessFactor": 0.6
      }
    }
  ],
  "meshes": [
    {
      "name": "Object_0",
      "primitives": [
        {
          "attributes": {
            "NORMAL": 1,
            "POSITION": 0
          },
          "indices": 2,
          "material": 0,
          "mode": 4
        }
      ]
    },
    {
      "name": "Object_1",
      "primitives": [
        {
          "attributes": {
            "NORMAL": 4,
            "POSITION": 3
          },
          "indices": 5,
          "material": 0,
          "mode": 4
        }
      ]
    }
  ],
  "nodes": [
    {
      "children": [
        1
      ],
      "matrix": [
        1.0,
        0.0,
        0.0,
        0.0,
        0.0,
        2.220446049250313e-16,
        -1.0,
        0.0,
        0.0,
        1.0,
        2.220446049250313e-16,
        0.0,
        0.0,
        0.0,
        0.0,
        1.0
      ],
      "name": "Sketchfab_model"
    },
    {
      "children": [
        2,
        3
      ],
      "name": "feet_free_high.OBJ.cleaner.materialmerger.gles"
    },
    {
      "mesh": 0,
      "name": "Object_2"
    },
    {
      "mesh": 1,
      "name": "Object_3"
    }
  ],
  "scene": 0,
  "scenes": [
    {
      "name": "Sketchfab_Scene",
      "nodes": [
        0
      ]
    }
  ]
}
