{
  "accessors": [
    {
      "bufferView": 1,
      "componentType": 5126,
      "count": 2836,
      "max": [
        50.79999923706055,
        -97.0,
        4.0
      ],
      "min": [
        -51.0,
        -169.07899475097656,
        -10.878000259399414
      ],
      "type": "VEC3"
    },
    {
      "bufferView": 1,
      "byteOffset": 34032,
      "componentType": 5126,
      "count": 2836,
      "max": [
        0.9999980926513672,
        1.0,
        0.9999963641166687
      ],
      "min": [
        -0.9991539120674133,
        -1.0,
        -1.0
      ],
      "type": "VEC3"
    },
    {
      "bufferView": 0,
      "componentType": 5125,
      "count": 14379,
      "type": "SCALAR"
    },
    {
      "bufferView": 1,
      "byteOffset": 68064,
      "componentType": 5126,
      "count": 40942,
      "max": [
        65.41000366210938,
        -0.0,
        65.41200256347656
      ],
      "min": [
        -65.41000366210938,
        -126.6050033569336,
        -65.41200256347656
      ],
      "type": "VEC3"
    },
    {
      "bufferView": 1,
      "byteOffset": 559368,
      "componentType": 5126,
      "count": 40942,
      "max": [
        0.999975323677063,
        1.0,
        0.9999958276748657
      ],
      "min": [
        -0.9999776482582092,
        -1.0,
        -0.9999883770942688
      ],
      "type": "VEC3"
    },
    {
      "bufferView": 0,
      "byteOffset": 57516,
      "componentType": 5125,
      "count": 169137,
      "type": "SCALAR"
    }
  ],
  "asset": {
    "extras": {
      "author": "Frankie-2nd_account (https://sketchfab.com/Frankie-2nd_account)",
      "license": "CC-BY-4.0 (http://creativecommons.org/licenses/by/4.0/)",
      "source": "https://sketchfab.com/3d-models/gomu-gomu-no-mi-90b620fce6f94a3581b9d20ebabc06ee",
      "title": "Gomu Gomu No Mi"
    },
    "generator": "Sketchfab-15.32.0",
    "version": "2.0"
  },
  "bufferViews": [
    {
      "buffer": 0,
      "byteLength": 734064,
      "name": "floatBufferViews",
      "target": 34963
    },
    {
      "buffer": 0,
      "byteLength": 1050672,
      "byteOffset": 734064,
      "byteStride": 12,
      "name": "floatBufferViews",
      "target": 34962
    }
  ],
  "buffers": [
    {
      "byteLength": 1784736,
      "uri": "scene.bin"
    }
  ],
  "extensionsUsed": [
    "KHR_materials_unlit"
  ],
  "materials": [
    {
      "doubleSided": true,
      "extensions": {
        "KHR_materials_unlit": {}
      },
      "name": "color_4634441",
      "pbrMetallicRoughness": {
        "baseColorFactor": [
          0.1850493373065418,
          0.42197790782417816,
          0.1916362367018426,
          1.0
        ],
        "metallicFactor": 0.0
      }
    },
    {
      "doubleSided": true,
      "extensions": {
        "KHR_materials_unlit": {}
      },
      "name": "color_8273816",
      "pbrMetallicRoughness": {
        "baseColorFactor": [
          0.494118,
          0.247059,
          0.596078,
          1.0
        ],
        "metallicFactor": 0.0
      }
    }
  ],
  "meshes": [
    {
      "name": "Object_0",
      "primitives": [
        {
          "attributes": {
            "NORMAL": 1,
            "POSITION": 0
          },
          "indices": 2,
          "material": 0,
          "mode": 4
        }
      ]
    },
    {
      "name": "Object_1",
      "primitives": [
        {
          "attributes": {
            "NORMAL": 4,
            "POSITION": 3
          },
          "indices": 5,
          "material": 1,
          "mode": 4
        }
      ]
    }
  ],
  "nodes": [
    {
      "children": [
        1
      ],
      "matrix": [
        1.0,
        0.0,
        0.0,
        0.0,
        0.0,
        -1.0,
        0.0,
        0.0,
        0.0,
        0.0,
        -1.0,
        0.0,
        0.0,
        0.0,
        0.0,
        1.0
      ],
      "name": "Sketchfab_model"
    },
    {
      "children": [
        2,
        3
      ],
      "name": "tinker.obj.cleaner.materialmerger.gles"
    },
    {
      "mesh": 0,
      "name": "Object_2"
    },
    {
      "mesh": 1,
      "name": "Object_3"
    }
  ],
  "scene": 0,
  "scenes": [
    {
      "name": "Sketchfab_Scene",
      "nodes": [
        0
      ]
    }
  ]
}
